<svg id="Capa_1" data-name="Capa 1" xmlns="http://www.w3.org/2000/svg" viewBox="0 0 612 612"><defs><style>.cls-1{fill:#fff;}</style></defs><title>youtube_hover</title><path d="M612,306C612,137,475,0,306,0S0,137,0,306,137,612,306,612,612,475,612,306ZM27.82,306C27.82,152.36,152.36,27.82,306,27.82S584.18,152.36,584.18,306,459.64,584.18,306,584.18,27.82,459.64,27.82,306Z"/><circle cx="306" cy="306.46" r="295.48"/><path id="YouTube_alt_" data-name="YouTube (alt)" class="cls-1" d="M433.8,253.19c0-21.76-17.1-39.39-38.2-39.39H216.39c-21.1,0-38.2,17.64-38.2,39.39V358.81c0,21.76,17.1,39.39,38.2,39.39H395.61c21.1,0,38.2-17.64,38.2-39.39ZM280.44,350.57V251.35l73,49.61Z"/></svg>